<?xml version="1.0" encoding="UTF-8" standalone="no"?>
<!DOCTYPE svg PUBLIC "-//W3C//DTD SVG 1.1//EN"
 "http://www.w3.org/Graphics/SVG/1.1/DTD/svg11.dtd">
<!-- Generated by graphviz version 12.1.1 (20240910.0053)
 -->
<!-- Title: INFRA Pages: 1 -->
<svg width="3079pt" height="404pt"
 viewBox="0.00 0.00 3079.12 404.00" xmlns="http://www.w3.org/2000/svg" xmlns:xlink="http://www.w3.org/1999/xlink">
<g id="graph0" class="graph" transform="scale(1 1) rotate(0) translate(4 400)">
<title>INFRA</title>
<polygon fill="white" stroke="none" points="-4,4 -4,-400 3075.12,-400 3075.12,4 -4,4"/>
<!-- ApiGateway -->
<g id="node1" class="node">
<title>ApiGateway</title>
<path fill="#e78f81" stroke="black" stroke-width="2" d="M185.28,-396C185.28,-396 12,-396 12,-396 6,-396 0,-390 0,-384 0,-384 0,-336 0,-336 0,-330 6,-324 12,-324 12,-324 185.28,-324 185.28,-324 191.28,-324 197.28,-330 197.28,-336 197.28,-336 197.28,-384 197.28,-384 197.28,-390 191.28,-396 185.28,-396"/>
<text text-anchor="middle" x="98.64" y="-364.2" font-family="Arial" font-size="14.00">ApiGateway</text>
<text text-anchor="middle" x="98.64" y="-347.4" font-family="Arial" font-size="14.00">(AWS::ApiGateway::RestApi)</text>
</g>
<!-- LambdaTest -->
<g id="node2" class="node">
<title>LambdaTest</title>
<path fill="#b7e0ff" stroke="black" stroke-width="2" d="M258.17,-72C258.17,-72 105.11,-72 105.11,-72 99.11,-72 93.11,-66 93.11,-60 93.11,-60 93.11,-12 93.11,-12 93.11,-6 99.11,0 105.11,0 105.11,0 258.17,0 258.17,0 264.17,0 270.17,-6 270.17,-12 270.17,-12 270.17,-60 270.17,-60 270.17,-66 264.17,-72 258.17,-72"/>
<text text-anchor="middle" x="181.64" y="-40.2" font-family="Arial" font-size="14.00">LambdaTest</text>
<text text-anchor="middle" x="181.64" y="-23.4" font-family="Arial" font-size="14.00">(AWS::Lambda::Function)</text>
</g>
<!-- LambdaTestPermission -->
<g id="node3" class="node">
<title>LambdaTestPermission</title>
<path fill="#e6e6e6" stroke="black" stroke-width="2" d="M203.94,-288C203.94,-288 35.33,-288 35.33,-288 29.33,-288 23.33,-282 23.33,-276 23.33,-276 23.33,-228 23.33,-228 23.33,-222 29.33,-216 35.33,-216 35.33,-216 203.94,-216 203.94,-216 209.94,-216 215.94,-222 215.94,-228 215.94,-228 215.94,-276 215.94,-276 215.94,-282 209.94,-288 203.94,-288"/>
<text text-anchor="middle" x="119.64" y="-256.2" font-family="Arial" font-size="14.00">LambdaTestPermission</text>
<text text-anchor="middle" x="119.64" y="-239.4" font-family="Arial" font-size="14.00">(AWS::Lambda::Permission)</text>
</g>
<!-- LambdaTestPermission&#45;&gt;LambdaTest -->
<g id="edge1" class="edge">
<title>LambdaTestPermission&#45;&gt;LambdaTest</title>
<path fill="none" stroke="black" d="M119.91,-215.66C121.12,-186.11 125.16,-143.27 137.64,-108 140.73,-99.25 145.03,-90.44 149.73,-82.15"/>
<polygon fill="black" stroke="black" points="152.7,-84 154.84,-73.62 146.7,-80.4 152.7,-84"/>
</g>
<!-- ApiRest -->
<g id="node4" class="node">
<title>ApiRest</title>
<path fill="#e78f81" stroke="black" stroke-width="2" d="M332.28,-180C332.28,-180 159,-180 159,-180 153,-180 147,-174 147,-168 147,-168 147,-120 147,-120 147,-114 153,-108 159,-108 159,-108 332.28,-108 332.28,-108 338.28,-108 344.28,-114 344.28,-120 344.28,-120 344.28,-168 344.28,-168 344.28,-174 338.28,-180 332.28,-180"/>
<text text-anchor="middle" x="245.64" y="-148.2" font-family="Arial" font-size="14.00">ApiRest</text>
<text text-anchor="middle" x="245.64" y="-131.4" font-family="Arial" font-size="14.00">(AWS::ApiGateway::RestApi)</text>
</g>
<!-- LambdaTestPermission&#45;&gt;ApiRest -->
<g id="edge2" class="edge">
<title>LambdaTestPermission&#45;&gt;ApiRest</title>
<path fill="none" stroke="black" d="M161.59,-215.7C172.33,-206.67 183.98,-196.87 195.09,-187.52"/>
<polygon fill="black" stroke="black" points="197.31,-190.23 202.71,-181.12 192.8,-184.88 197.31,-190.23"/>
</g>
<!-- ApiRest&#45;&gt;LambdaTest -->
<g id="edge3" class="edge">
<title>ApiRest&#45;&gt;LambdaTest</title>
<path fill="none" stroke="black" d="M224.33,-107.7C219.31,-99.39 213.89,-90.42 208.66,-81.75"/>
<polygon fill="black" stroke="black" points="211.8,-80.19 203.64,-73.44 205.81,-83.81 211.8,-80.19"/>
</g>
<!-- Deployment -->
<g id="node5" class="node">
<title>Deployment</title>
<path fill="#e6e6e6" stroke="black" stroke-width="2" d="M483.12,-288C483.12,-288 284.16,-288 284.16,-288 278.16,-288 272.16,-282 272.16,-276 272.16,-276 272.16,-228 272.16,-228 272.16,-222 278.16,-216 284.16,-216 284.16,-216 483.12,-216 483.12,-216 489.12,-216 495.12,-222 495.12,-228 495.12,-228 495.12,-276 495.12,-276 495.12,-282 489.12,-288 483.12,-288"/>
<text text-anchor="middle" x="383.64" y="-256.2" font-family="Arial" font-size="14.00">Deployment</text>
<text text-anchor="middle" x="383.64" y="-239.4" font-family="Arial" font-size="14.00">(AWS::ApiGateway::Deployment)</text>
</g>
<!-- Deployment&#45;&gt;ApiRest -->
<g id="edge4" class="edge">
<title>Deployment&#45;&gt;ApiRest</title>
<path fill="none" stroke="black" d="M337.69,-215.7C325.7,-206.5 312.66,-196.48 300.27,-186.97"/>
<polygon fill="black" stroke="black" points="302.65,-184.38 292.59,-181.06 298.39,-189.93 302.65,-184.38"/>
</g>
<!-- Stage -->
<g id="node6" class="node">
<title>Stage</title>
<path fill="#e6e6e6" stroke="black" stroke-width="2" d="M388.06,-396C388.06,-396 227.22,-396 227.22,-396 221.22,-396 215.22,-390 215.22,-384 215.22,-384 215.22,-336 215.22,-336 215.22,-330 221.22,-324 227.22,-324 227.22,-324 388.06,-324 388.06,-324 394.06,-324 400.06,-330 400.06,-336 400.06,-336 400.06,-384 400.06,-384 400.06,-390 394.06,-396 388.06,-396"/>
<text text-anchor="middle" x="307.64" y="-364.2" font-family="Arial" font-size="14.00">Stage</text>
<text text-anchor="middle" x="307.64" y="-347.4" font-family="Arial" font-size="14.00">(AWS::ApiGateway::Stage)</text>
</g>
<!-- Stage&#45;&gt;ApiRest -->
<g id="edge6" class="edge">
<title>Stage&#45;&gt;ApiRest</title>
<path fill="none" stroke="black" d="M281.62,-323.68C274.72,-312.73 267.99,-300.3 263.64,-288 252.67,-257 248.22,-220.15 246.49,-191.62"/>
<polygon fill="black" stroke="black" points="249.99,-191.67 245.99,-181.86 243,-192.02 249.99,-191.67"/>
</g>
<!-- Stage&#45;&gt;Deployment -->
<g id="edge5" class="edge">
<title>Stage&#45;&gt;Deployment</title>
<path fill="none" stroke="black" d="M332.94,-323.7C338.97,-315.3 345.48,-306.23 351.75,-297.47"/>
<polygon fill="black" stroke="black" points="354.58,-299.54 357.56,-289.37 348.89,-295.46 354.58,-299.54"/>
</g>
<!-- WebACL -->
<g id="node7" class="node">
<title>WebACL</title>
<ellipse fill="#e6e6e6" stroke="black" stroke-width="2" cx="631.64" cy="-252" rx="107.01" ry="36"/>
<text text-anchor="middle" x="631.64" y="-256.2" font-family="Arial" font-size="14.00">WebACL</text>
<text text-anchor="middle" x="631.64" y="-239.4" font-family="Arial" font-size="14.00">(AWS::WAFv2::WebACL)</text>
</g>
<!-- WafAPIGWAssociation -->
<g id="node8" class="node">
<title>WafAPIGWAssociation</title>
<ellipse fill="#e6e6e6" stroke="black" stroke-width="2" cx="631.64" cy="-360" rx="150.87" ry="36"/>
<text text-anchor="middle" x="631.64" y="-364.2" font-family="Arial" font-size="14.00">WafAPIGWAssociation</text>
<text text-anchor="middle" x="631.64" y="-347.4" font-family="Arial" font-size="14.00">(AWS::WAFv2::WebACLAssociation)</text>
</g>
<!-- WafAPIGWAssociation&#45;&gt;WebACL -->
<g id="edge7" class="edge">
<title>WafAPIGWAssociation&#45;&gt;WebACL</title>
<path fill="none" stroke="black" d="M631.64,-323.7C631.64,-315.93 631.64,-307.57 631.64,-299.43"/>
<polygon fill="black" stroke="black" points="635.14,-299.66 631.64,-289.66 628.14,-299.66 635.14,-299.66"/>
</g>
<!-- XRay -->
<g id="node9" class="node">
<title>XRay</title>
<ellipse fill="#e6e6e6" stroke="black" stroke-width="2" cx="913.64" cy="-360" rx="112.76" ry="36"/>
<text text-anchor="middle" x="913.64" y="-364.2" font-family="Arial" font-size="14.00">XRay</text>
<text text-anchor="middle" x="913.64" y="-347.4" font-family="Arial" font-size="14.00">(AWS::EC2::VPCEndpoint)</text>
</g>
<!-- CloudWatchLogs -->
<g id="node10" class="node">
<title>CloudWatchLogs</title>
<ellipse fill="#e6e6e6" stroke="black" stroke-width="2" cx="1157.64" cy="-360" rx="112.76" ry="36"/>
<text text-anchor="middle" x="1157.64" y="-364.2" font-family="Arial" font-size="14.00">CloudWatchLogs</text>
<text text-anchor="middle" x="1157.64" y="-347.4" font-family="Arial" font-size="14.00">(AWS::EC2::VPCEndpoint)</text>
</g>
<!-- EcrApi -->
<g id="node11" class="node">
<title>EcrApi</title>
<ellipse fill="#e6e6e6" stroke="black" stroke-width="2" cx="1401.64" cy="-360" rx="112.76" ry="36"/>
<text text-anchor="middle" x="1401.64" y="-364.2" font-family="Arial" font-size="14.00">EcrApi</text>
<text text-anchor="middle" x="1401.64" y="-347.4" font-family="Arial" font-size="14.00">(AWS::EC2::VPCEndpoint)</text>
</g>
<!-- EcrDkr -->
<g id="node12" class="node">
<title>EcrDkr</title>
<ellipse fill="#e6e6e6" stroke="black" stroke-width="2" cx="1645.64" cy="-360" rx="112.76" ry="36"/>
<text text-anchor="middle" x="1645.64" y="-364.2" font-family="Arial" font-size="14.00">EcrDkr</text>
<text text-anchor="middle" x="1645.64" y="-347.4" font-family="Arial" font-size="14.00">(AWS::EC2::VPCEndpoint)</text>
</g>
<!-- ApiGatewayEndpoint -->
<g id="node13" class="node">
<title>ApiGatewayEndpoint</title>
<ellipse fill="#e6e6e6" stroke="black" stroke-width="2" cx="1889.64" cy="-360" rx="112.76" ry="36"/>
<text text-anchor="middle" x="1889.64" y="-364.2" font-family="Arial" font-size="14.00">ApiGatewayEndpoint</text>
<text text-anchor="middle" x="1889.64" y="-347.4" font-family="Arial" font-size="14.00">(AWS::EC2::VPCEndpoint)</text>
</g>
<!-- S3Endpoint -->
<g id="node14" class="node">
<title>S3Endpoint</title>
<ellipse fill="#e6e6e6" stroke="black" stroke-width="2" cx="2133.64" cy="-360" rx="112.76" ry="36"/>
<text text-anchor="middle" x="2133.64" y="-364.2" font-family="Arial" font-size="14.00">S3Endpoint</text>
<text text-anchor="middle" x="2133.64" y="-347.4" font-family="Arial" font-size="14.00">(AWS::EC2::VPCEndpoint)</text>
</g>
<!-- DynamoDb -->
<g id="node15" class="node">
<title>DynamoDb</title>
<ellipse fill="#e6e6e6" stroke="black" stroke-width="2" cx="2377.64" cy="-360" rx="112.76" ry="36"/>
<text text-anchor="middle" x="2377.64" y="-364.2" font-family="Arial" font-size="14.00">DynamoDb</text>
<text text-anchor="middle" x="2377.64" y="-347.4" font-family="Arial" font-size="14.00">(AWS::EC2::VPCEndpoint)</text>
</g>
<!-- SecretsManager -->
<g id="node16" class="node">
<title>SecretsManager</title>
<ellipse fill="#e6e6e6" stroke="black" stroke-width="2" cx="2621.64" cy="-360" rx="112.76" ry="36"/>
<text text-anchor="middle" x="2621.64" y="-364.2" font-family="Arial" font-size="14.00">SecretsManager</text>
<text text-anchor="middle" x="2621.64" y="-347.4" font-family="Arial" font-size="14.00">(AWS::EC2::VPCEndpoint)</text>
</g>
<!-- Ec2InstanceConnect -->
<g id="node17" class="node">
<title>Ec2InstanceConnect</title>
<ellipse fill="#e6e6e6" stroke="black" stroke-width="2" cx="2911.64" cy="-360" rx="159.49" ry="36"/>
<text text-anchor="middle" x="2911.64" y="-364.2" font-family="Arial" font-size="14.00">Ec2InstanceConnect</text>
<text text-anchor="middle" x="2911.64" y="-347.4" font-family="Arial" font-size="14.00">(AWS::EC2::InstanceConnectEndpoint)</text>
</g>
</g>
</svg>
